#!OML:ASF E:\motion texture\Top Level 1\Subject 1\Session 1\male.ASF
:FULLY-SPECIFIED
:DEGREES
129
root 14.7784 17.4431 5.56385 145.054 -73.0854 -141.451
lowerback -2.66545 4.87798 10.1292
upperback -3.42315 6.2384 2.61171
thorax -1.29661 2.87342 -2.77428
lowerneck -16.6475 -4.70762 -7.30294
upperneck 15.3301 -6.47033 9.17779
head 8.03106 -2.67015 3.47844
rclavicle 9.75908e-015 -4.07509e-015
rhumerus -20.2758 17.4013 -87.8997
rradius 71.1182
rwrist -0.835086
rhand -9.20929 -10.3915
rfingers 7.12502
rthumb 16.745 -39.6893
lclavicle 9.75908e-015 -4.07509e-015
lhumerus -55.5013 4.05852 80.7659
lradius 41.7348
lwrist -13.4472
lhand -8.19361 8.46542
lfingers 7.12502
lthumb 17.7225 37.6778
rfemur 11.958 7.53739 32.3844
rtibia 26.5303
rfoot -9.92116 1.78276
rtoes -9.75746
lfemur -42.6479 7.14603 -3.34317
ltibia 49.8133
lfoot 193.301 173.979
ltoes -9.8985
130
root 14.5484 17.4316 5.58456 145.829 -73.1536 -142.186
lowerback -3.03531 4.81907 9.98898
upperback -3.6295 6.12146 2.57376
thorax -1.32889 2.80719 -2.72113
lowerneck -16.2453 -4.65117 -7.32409
upperneck 15.4489 -6.43395 9.20225
head 7.99758 -2.66424 3.50058
rclavicle 6.9264e-015 1.0635e-014
rhumerus -22.0868 17.0717 -88.0299
rradius 70.6174
rwrist -0.710755
rhand -9.22584 -10.5128
rfingers 7.12502
rthumb 16.729 -39.812
lclavicle 6.9264e-015 1.0635e-014
lhumerus -55.5073 4.09754 81.1288
lradius 42.1911
lwrist -13.2767
lhand -8.62992 8.5275
lfingers 7.12502
lthumb 17.3027 37.7773
rfemur 11.2628 7.04264 31.4948
rtibia 28.4883
rfoot -8.14701 2.53841
rtoes -10.0272
lfemur -39.5993 6.37579 -3.83405
ltibia 47.559
lfoot 188.238 173.768
ltoes -10.1758
131
root 14.3219 17.421 5.60603 146.826 -73.3385 -143.173
lowerback -3.36262 4.70755 9.70093
upperback -3.8581 5.94664 2.52189
thorax -1.42644 2.71249 -2.61112
lowerneck -15.75 -4.56603 -7.34592
upperneck 15.5594 -6.36209 9.21623
head 7.94096 -2.64568 3.52478
rclavicle -3.15943e-014 -1.53064e-014
rhumerus -23.9586 16.7611 -88.1571
rradius 70.0699
rwrist -0.601412
rhand -9.22933 -10.6581
rfingers 7.12502
rthumb 16.7257 -39.9576
lclavicle -3.15943e-014 -1.53064e-014
lhumerus -55.5424 4.21131 81.4904
lradius 42.6585
lwrist -13.1653
lhand -9.14264 8.62402
lfingers 7.12502
lthumb 16.8091 37.9164
rfemur 10.2773 6.47674 30.432
rtibia 30.8313
rfoot -5.83093 3.17844
rtoes -10.1213
lfemur -36.7743 5.79962 -4.6408
ltibia 45.3154
lfoot 183.546 174.081
ltoes -8.74466
132
root 14.1035 17.4122 5.62648 148.087 -73.6919 -144.464
lowerback -3.61428 4.52368 9.19773
upperback -4.01569 5.69145 2.44624
thorax -1.51525 2.58795 -2.41676
lowerneck -15.5412 -4.49103 -7.33148
upperneck 15.7331 -6.29117 9.19596
head 7.95354 -2.61924 3.52835
rclavicle 1.635e-014 5.73991e-014
rhumerus -25.6257 16.4528 -88.2106
rradius 69.42
rwrist -0.505527
rhand -9.22319 -10.8414
rfingers 7.12502
rthumb 16.7316 -40.1404
lclavicle 1.635e-014 5.73991e-014
lhumerus -55.365 4.42647 81.8628
lradius 43.1012
lwrist -13.1259
lhand -9.69207 8.77918
lfingers 7.12502
lthumb 16.2802 38.1157
rfemur 8.99865 5.85024 29.2003
rtibia 33.5308
rfoot -2.88864 3.6079
rtoes -9.91474
lfemur -34.2205 5.40156 -5.75214
ltibia 43.0687
lfoot 179.825 174.83
ltoes -5.55259
133
root 13.8959 17.4064 5.64441 149.699 -74.2447 -146.171
lowerback -3.76317 4.26051 8.43472
upperback -4.09537 5.35201 2.33691
thorax -1.60257 2.43314 -2.12426
lowerneck -15.5896 -4.43032 -7.2868
upperneck 15.9441 -6.22782 9.15635
head 8.02327 -2.58807 3.51678
rclavicle -3.51259e-014 -3.26255e-014
rhumerus -27.077 16.1105 -88.194
rradius 68.6594
rwrist -0.402802
rhand -9.21106 -11.0878
rfingers 7.12502
rthumb 16.7433 -40.3858
lclavicle -3.51259e-014 -3.26255e-014
lhumerus -54.9574 4.71374 82.2472
lradius 43.5066
lwrist -13.1389
lhand -10.2547 8.92311
lfingers 7.12502
lthumb 15.7384 38.3032
rfemur 7.46901 5.20023 27.8129
rtibia 36.5389
rfoot 0.672663 3.73741
rtoes -8.9217
lfemur -31.9229 5.10564 -7.12906
ltibia 40.8393
lfoot 177.133 175.717
ltoes -1.94699
134
root 13.701 17.4035 5.65934 151.682 -74.9822 -148.319
lowerback -3.77894 3.92356 7.43446
upperback -4.10165 4.93678 2.19558
thorax -1.70238 2.25066 -1.74283
lowerneck -15.8612 -4.3893 -7.21995
upperneck 16.1668 -6.1793 9.1052
head 8.13721 -2.55653 3.4935
rclavicle -3.03939e-014 -2.59414e-014
rhumerus -28.3181 15.6993 -88.1048
rradius 67.7862
rwrist -0.278596
rhand -9.18525 -11.3942
rfingers 7.12502
rthumb 16.7681 -40.6901
lclavicle -3.03939e-014 -2.59414e-014
lhumerus -54.3175 5.02584 82.6637
lradius 43.8833
lwrist -13.1266
lhand -10.7948 9.04623
lfingers 7.12502
lthumb 15.2182 38.4665
rfemur 5.71047 4.54914 26.3244
rtibia 39.8246
rfoot 4.76227 3.54664
rtoes -6.74273
lfemur -29.878 4.81726 -8.68081
ltibia 38.7438
lfoot 175.286 176.439
ltoes 1.34957
135
root 13.5197 17.403 5.67105 154.031 -75.8611 -150.898
lowerback -3.65533 3.52898 6.25649
upperback -4.03139 4.46119 2.0273
thorax -1.80426 2.04615 -1.2952
lowerneck -16.3443 -4.37227 -7.13429
upperneck 16.381 -6.15222 9.05236
head 8.28788 -2.52751 3.46164
rclavicle -1.64774e-015 8.05389e-015
rhumerus -29.3485 15.1753 -87.9421
rradius 66.7957
rwrist -0.104762
rhand -9.14628 -11.6884
rfingers 7.12502
rthumb 16.8056 -40.9811
lclavicle -1.64774e-015 8.05389e-015
lhumerus -53.4298 5.3255 83.1197
lradius 44.2389
lwrist -13.0553
lhand -11.2472 9.12862
lfingers 7.12502
lthumb 14.7824 38.5814
rfemur 3.74572 3.91819 24.8069
rtibia 43.3598
rfoot 9.24979 3.08897
rtoes -3.18234
lfemur -28.1 4.46521 -10.3054
ltibia 36.9532
lfoot 173.992 176.889
ltoes 3.89612
136
root 13.351 17.4033 5.68028 156.723 -76.8012 -153.862
lowerback -3.40605 3.09964 4.99753
upperback -3.94544 3.94612 1.84932
thorax -1.95276 1.82334 -0.813369
lowerneck -16.7864 -4.35417 -7.0576
upperneck 16.5248 -6.12116 9.01371
head 8.40852 -2.49745 3.43663
rclavicle 2.3702e-014 1.15047e-014
rhumerus -30.326 14.532 -87.7452
rradius 65.7232
rwrist 0.121153
rhand -9.12989 -11.9566
rfingers 7.12502
rthumb 16.8214 -41.248
lclavicle 2.3702e-014 1.15047e-014
lhumerus -52.439 5.5752 83.6127
lradius 44.5965
lwrist -12.8597
lhand -11.6332 9.17583
lfingers 7.12502
lthumb 14.4104 38.6556
rfemur 1.57229 3.33693 23.3407
rtibia 47.142
rfoot 13.8702 2.4933
rtoes 1.59306
lfemur -26.6192 4.01779 -11.892
ltibia 35.6104
lfoot 173.091 177.005
ltoes 5.52022
137
root 13.1935 17.4035 5.6875 159.739 -77.7217 -157.186
lowerback -3.0524 2.65878 3.73894
upperback -3.863 3.4127 1.67372
thorax -2.1481 1.59052 -0.325787
lowerneck -17.0612 -4.31847 -7.00017
upperneck 16.5653 -6.06757 8.99571
head 8.4641 -2.46173 3.42569
rclavicle 6.79595e-015 -5.66536e-015
rhumerus -31.3158 13.7601 -87.5308
rradius 64.5827
rwrist 0.42777
rhand -9.15622 -12.1163
rfingers 7.12502
rthumb 16.7961 -41.4098
lclavicle 6.79595e-015 -5.66536e-015
lhumerus -51.4052 5.7568 84.1365
lradius 44.9659
lwrist -12.5317
lhand -11.9449 9.23938
lfingers 7.12502
lthumb 14.1101 38.7403
rfemur -0.798304 2.83094 21.9848
rtibia 51.1689
rfoot 18.1812 1.94254
rtoes 6.79058
lfemur -25.4091 3.49528 -13.3683
ltibia 34.7247
lfoot 172.446 176.83
ltoes 6.40322
138
root 13.0457 17.4035 5.69248 163.038 -78.5688 -160.831
lowerback -2.61826 2.22944 2.53389
upperback -3.72087 2.88511 1.49583
thorax -2.30744 1.3612 0.137656
lowerneck -17.3944 -4.28619 -6.92069
upperneck 16.5536 -6.01613 8.97937
head 8.51224 -2.42395 3.41044
rclavicle -3.97569e-016 -4.17448e-015
rhumerus -32.1706 12.8177 -87.2737
rradius 63.3453
rwrist 0.808713
rhand -9.24816 -12.1556
rfingers 7.12502
rthumb 16.7075 -41.4566
lclavicle -3.97569e-016 -4.17448e-015
lhumerus -50.1885 5.84522 84.6895
lradius 45.3183
lwrist -12.1205
lhand -12.2128 9.3566
lfingers 7.12502
lthumb 13.8519 38.8753
rfemur -3.34506 2.39602 20.7703
rtibia 55.4175
rfoot 21.8074 1.59068
rtoes 11.7141
lfemur -24.4032 2.94933 -14.701
ltibia 34.2051
lfoot 171.996 176.437
ltoes 6.86977
